<svg xmlns="http://www.w3.org/2000/svg" viewBox="110 100 290 320" width="100%" height="100%">
  <defs>
    <filter id="shadow" x="-10%" y="-10%" width="120%" height="120%">
      <feDropShadow dx="0" dy="6" stdDeviation="3" flood-color="#143d3b" flood-opacity="0.2"/>
    </filter>
  </defs>

  <rect x="110" y="100" width="290" height="320" fill="none"/>

  <g>
    
    <path d="M 130 370 L 372 370 A 10 10 0 0 1 382 380 L 382 385 A 10 10 0 0 1 372 395 L 130 395 Z" fill="#143d3b" opacity="0.25" />

    <rect x="135" y="110" width="245" height="270" rx="20" fill="#5c1313" stroke="#5c1313" stroke-width="12" stroke-linejoin="round"/>
    <rect x="140" y="115" width="235" height="250" rx="15" fill="#4ea8a8"/>
    <path d="M 153 120 L 163 120 L 163 360 L 153 360 Z" fill="#ffffff" opacity="0.2"/>
    
    <path d="M 145 350 L 368 350 C 378 350, 382 355, 382 365 L 372 385 C 367 390, 155 390, 145 385 Z" fill="#5c1313" stroke="#5c1313" stroke-width="8" stroke-linejoin="round"/>
    <path d="M 145 352 L 365 352 C 372 352, 376 356, 376 362 L 368 380 C 366 384, 155 384, 148 380 Z" fill="#fdf0cd"/>

    <path d="M 175 340 L 215 340 L 215 415 L 195 398 L 175 415 Z" fill="#5c1313" stroke="#5c1313" stroke-width="10" stroke-linejoin="round"/>
    <path d="M 179 340 L 211 340 L 211 405 L 195 392 L 179 405 Z" fill="#ff5e3a"/>
    <path d="M 195 340 L 211 340 L 211 405 L 195 392 Z" fill="#000000" opacity="0.12"/>

    <g filter="url(#shadow)">
      <path d="M 210 240 L 302 240 L 302 270 C 302 275, 298 280, 292 280 L 220 280 C 214 280, 210 275, 210 270 Z" fill="#5c1313" stroke="#5c1313" stroke-width="12" stroke-linejoin="round"/>
      <path d="M 210 240 C 165 240, 165 175, 210 175 C 210 145, 250 135, 265 155 C 280 135, 310 145, 310 175 C 345 175, 345 240, 302 240 Z" fill="#5c1313" stroke="#5c1313" stroke-width="12" stroke-linejoin="round"/>
      
      <path d="M 210 175 C 172 180, 172 235, 210 240 L 302 240 C 338 235, 338 180, 310 175 C 310 150, 285 140, 265 160 C 245 140, 210 150, 210 175 Z" fill="#fff5f5"/>
      <path d="M 215 240 L 297 240 L 297 265 C 297 270, 293 273, 288 273 L 224 273 C 219 273, 215 270, 215 265 Z" fill="#fff5f5"/>
      
      <path d="M 265 160 C 285 140, 310 150, 310 175 C 338 180, 338 235, 302 240 L 255 240 C 275 220, 285 185, 265 160 Z" fill="#fce4e4" opacity="0.85"/>
      <path d="M 255 240 L 297 240 L 297 265 C 297 270, 293 273, 288 273 L 255 273 Z" fill="#fce4e4" opacity="0.85"/>
    </g>

  </g>
</svg>
