<svg xmlns="http://www.w3.org/2000/svg" viewBox="0 0 512 512" width="100%" height="100%">
  <defs>
    <filter id="shadow" x="-10%" y="-10%" width="120%" height="120%">
      <feDropShadow dx="0" dy="8" stdDeviation="4" flood-color="#1e3d3a" flood-opacity="0.15"/>
    </filter>
  </defs>

  <rect width="512" height="512" fill="none"/>

  <g transform="translate(0, 0)">
    
    <path d="M 140 370 L 372 370 A 10 10 0 0 1 382 380 L 382 385 A 10 10 0 0 1 372 395 L 140 395 Z" fill="#143d3b" opacity="0.2" />

    <rect x="135" y="110" width="242" height="270" rx="20" fill="#601515" stroke="#601515" stroke-width="10" stroke-linejoin="round"/>
    <rect x="140" y="115" width="232" height="250" rx="15" fill="#4ea8a8"/>
    <path d="M 155 120 L 165 120 L 165 360 L 155 360 Z" fill="#ffffff" opacity="0.15"/>
    
    <path d="M 145 350 L 365 350 C 375 350, 380 355, 380 365 L 370 385 C 365 390, 155 390, 145 385 Z" fill="#601515" stroke="#601515" stroke-width="6" stroke-linejoin="round"/>
    <path d="M 145 352 L 362 352 C 370 352, 374 356, 374 362 L 366 380 C 364 384, 155 384, 148 380 Z" fill="#fdf0cd"/>

    <path d="M 175 340 L 215 340 L 215 410 L 195 395 L 175 410 Z" fill="#601515" stroke="#601515" stroke-width="8" stroke-linejoin="round"/>
    <path d="M 179 340 L 211 340 L 211 400 L 195 388 L 179 400 Z" fill="#ff5e3a"/>
    <path d="M 195 340 L 211 340 L 211 400 L 195 388 Z" fill="#000000" opacity="0.1"/>

    <g filter="url(#shadow)">
      <path d="M 210 240 L 302 240 L 302 270 C 302 275, 298 280, 292 280 L 220 280 C 214 280, 210 275, 210 270 Z" fill="#601515" stroke="#601515" stroke-width="10" stroke-linejoin="round"/>
      <path d="M 210 240 C 170 240, 170 180, 210 180 C 210 150, 250 140, 265 160 C 280 140, 310 150, 310 180 C 340 180, 340 240, 302 240 Z" fill="#601515" stroke="#601515" stroke-width="10" stroke-linejoin="round"/>
      
      <path d="M 210 180 C 175 185, 175 235, 210 240 L 302 240 C 335 235, 335 185, 310 180 C 310 155, 285 145, 265 165 C 245 145, 210 155, 210 180 Z" fill="#fff5f5"/>
      <path d="M 215 240 L 297 240 L 297 265 C 297 270, 293 273, 288 273 L 224 273 C 219 273, 215 270, 215 265 Z" fill="#fff5f5"/>
      
      <path d="M 265 165 C 285 145, 310 155, 310 180 C 335 185, 335 235, 302 240 L 255 240 C 275 220, 285 190, 265 165 Z" fill="#fce4e4" opacity="0.8"/>
      <path d="M 255 240 L 297 240 L 297 265 C 297 270, 293 273, 288 273 L 255 273 Z" fill="#fce4e4" opacity="0.8"/>
    </g>

  </g>
</svg>
