<?xml version="1.0" standalone="no"?>
<!DOCTYPE svg PUBLIC "-//W3C//DTD SVG 20010904//EN"
 "http://www.w3.org/TR/2001/REC-SVG-20010904/DTD/svg10.dtd">
<svg version="1.0" xmlns="http://www.w3.org/2000/svg"
 width="268.000000pt" height="309.000000pt" viewBox="0 0 268.000000 309.000000"
 preserveAspectRatio="xMidYMid meet">

<g transform="translate(0.000000,309.000000) scale(0.100000,-0.100000)"
fill="#000000" stroke="none">
<path d="M1222 3065 c-97 -27 -164 -67 -241 -144 l-75 -74 -72 2 c-92 3 -167
-19 -244 -71 -155 -103 -224 -291 -172 -464 48 -158 166 -261 328 -288 40 -7
41 -9 53 -59 15 -64 37 -304 29 -312 -3 -4 -37 3 -74 14 -103 31 -259 61 -349
68 -96 7 -106 -1 -113 -83 -4 -51 -7 -57 -48 -85 -61 -41 -95 -104 -102 -185
-4 -60 -7 -67 -41 -94 -21 -15 -50 -52 -67 -82 l-29 -53 -3 -278 c-3 -266 -2
-280 18 -322 13 -27 32 -49 53 -58 18 -9 210 -70 427 -137 681 -209 613 -185
629 -220 37 -87 112 -134 211 -135 101 0 146 31 225 159 6 10 132 52 345 115
652 194 689 206 721 237 46 44 51 81 47 373 -3 254 -4 268 -26 313 -13 25 -42
64 -66 86 -39 36 -44 46 -51 99 -9 79 -29 117 -93 179 -47 47 -53 57 -47 82
10 47 -9 80 -51 88 -68 13 -365 -38 -478 -82 -18 -7 -19 -3 -12 77 10 119 27
250 36 275 7 16 20 23 57 28 111 14 218 95 279 208 38 72 39 75 39 178 -1 136
-23 195 -107 286 -95 101 -230 155 -354 140 l-52 -6 -38 51 c-51 66 -126 123
-205 155 -80 33 -207 41 -287 19z m284 -119 c82 -39 156 -108 198 -185 31 -57
56 -139 56 -183 0 -16 4 -28 9 -28 14 0 23 92 15 156 l-7 57 74 -5 c129 -9
249 -90 302 -206 34 -73 31 -189 -6 -264 -63 -128 -219 -196 -359 -158 -53 15
-126 68 -161 117 -30 42 -30 42 -13 82 9 23 13 41 10 41 -3 0 -22 -13 -42 -30
-166 -132 -392 -112 -532 48 -51 57 -54 32 -8 -57 l32 -62 -50 -50 c-71 -72
-140 -103 -231 -103 -121 1 -209 58 -268 174 -64 127 -30 292 81 389 60 53
118 75 204 75 l75 1 -3 -64 c-2 -36 -1 -90 4 -120 l7 -56 14 80 c52 306 339
475 599 351z m-294 -767 c81 -25 201 -23 280 5 l47 17 60 -59 c41 -40 81 -69
126 -88 60 -26 65 -31 65 -60 0 -17 -2 -33 -5 -36 -3 -3 -56 12 -118 33 -206
70 -392 76 -611 19 -65 -16 -126 -34 -136 -40 -21 -11 -24 -8 -34 31 -5 23 -2
28 22 34 48 12 132 66 180 115 26 27 49 49 50 49 2 1 35 -9 74 -20z m338 -200
c41 -11 108 -35 148 -54 66 -31 72 -36 72 -65 0 -16 -3 -30 -7 -30 -3 0 -34
11 -67 24 -101 40 -209 59 -346 59 -136 1 -195 -9 -338 -55 -52 -16 -95 -28
-96 -26 -2 2 -6 18 -9 35 -6 30 -3 34 31 52 73 36 190 68 317 85 57 8 220 -6
295 -25z m29 -149 c109 -28 181 -64 181 -90 0 -25 2 -25 -122 6 -214 53 -516
40 -700 -31 -15 -6 -18 -2 -18 23 0 26 6 32 48 50 63 27 145 50 217 62 98 15
298 5 394 -20z m-12 -159 c96 -19 183 -47 183 -60 0 -3 -26 -17 -57 -30 -70
-31 -197 -108 -285 -173 l-68 -50 -57 45 c-75 57 -135 93 -257 155 l-99 50 29
15 c123 64 413 87 611 48z m-977 -53 c248 -52 529 -181 675 -310 l35 -30 0
-431 0 -431 -67 65 c-216 209 -489 358 -759 414 -43 9 -81 18 -86 21 -10 6
-11 718 -1 728 9 9 80 0 203 -26z m1710 -315 c0 -192 -3 -358 -6 -370 -5 -16
-16 -24 -43 -29 -260 -43 -603 -225 -796 -423 -33 -33 -63 -61 -67 -61 -4 0
-8 193 -8 429 l0 429 63 51 c152 120 363 220 586 276 59 15 214 42 254 44 16
1 17 -22 17 -346z m-1987 -467 c12 -8 49 -17 81 -21 224 -26 542 -183 731
-359 l70 -66 -85 51 c-254 149 -509 255 -670 279 -41 6 -89 13 -106 16 -17 2
-44 18 -60 35 l-29 30 -5 282 c-5 305 -3 347 26 378 19 21 19 15 22 -295 2
-315 2 -316 25 -330z m2125 282 l3 -307 -28 -31 c-24 -26 -39 -32 -98 -41
-195 -27 -462 -135 -726 -294 -51 -32 -98 -60 -103 -63 -28 -17 16 27 97 94
201 169 426 284 643 329 104 21 140 40 153 77 7 19 11 133 11 294 0 144 3 270
6 279 6 14 9 13 23 -7 14 -20 16 -66 19 -330z m-2286 -125 c2 -115 7 -215 11
-224 6 -11 -3 -22 -33 -41 l-40 -27 0 207 c0 183 3 212 20 250 10 23 23 42 29
42 6 0 11 -79 13 -207z m1149 -857 c53 -10 83 -7 117 14 37 23 42 13 10 -18
-33 -30 -75 -43 -115 -36 -37 7 -103 62 -103 87 0 11 8 7 30 -13 16 -15 44
-30 61 -34z"/>
<path d="M1120 2779 c-87 -142 -55 -325 71 -405 69 -43 211 -69 249 -44 12 8
10 10 -11 10 -35 0 -117 29 -159 56 -91 57 -140 150 -140 264 0 41 4 91 10
109 13 47 5 50 -20 10z"/>
<path d="M2078 2479 c-10 -152 -109 -246 -273 -258 l-80 -6 40 -15 c22 -7 72
-14 110 -14 81 0 134 23 182 78 43 49 57 96 50 177 -8 99 -23 118 -29 38z"/>
<path d="M575 2497 c-25 -121 20 -230 115 -280 49 -25 63 -28 125 -25 39 3 86
11 105 19 l35 16 -75 0 c-158 0 -263 93 -288 254 l-9 54 -8 -38z"/>
<path d="M484 1467 c-2 -7 -3 -120 -2 -251 l3 -238 104 -34 c188 -61 402 -182
556 -314 60 -51 87 -59 93 -29 4 21 -129 129 -253 206 -108 68 -286 154 -381
187 l-69 23 -3 218 c-2 209 -7 245 -34 245 -5 0 -11 -6 -14 -13z"/>
<path d="M2167 1484 c-4 -4 -7 -110 -7 -236 0 -174 -3 -229 -12 -232 -227 -66
-449 -185 -628 -335 -71 -60 -81 -71 -77 -86 8 -25 40 -12 99 41 137 122 373
255 564 317 l99 32 0 250 c0 218 -2 250 -15 253 -9 1 -19 0 -23 -4z"/>
<path d="M2411 1424 c0 -11 3 -14 6 -6 3 7 2 16 -1 19 -3 4 -6 -2 -5 -13z"/>
<path d="M2412 1075 c0 -16 2 -22 5 -12 2 9 2 23 0 30 -3 6 -5 -1 -5 -18z"/>
<path d="M2413 985 c0 -22 2 -30 4 -17 2 12 2 30 0 40 -3 9 -5 -1 -4 -23z"/>
<path d="M2411 924 c0 -11 3 -14 6 -6 3 7 2 16 -1 19 -3 4 -6 -2 -5 -13z"/>
</g>
</svg>
